<svg width="294" height="113" viewBox="0 0 294 113" fill="none" xmlns="http://www.w3.org/2000/svg">
    <rect width="294" height="113" rx="15" fill="#2F2F2F"/>
    <path d="M77.388 33.982c1.469 1.072 2.005 2.898 2.283 4.603.439 3.425.191 7.069-.506 10.442-.255 1.312-.227 2.47.376 3.676.966 1.097 2.183 1.576 3.501 2.134 7.274 3.186 7.274 3.186 8.81 6.224.272 1.437-.057 2.972-.804 4.216-2.228 2.219-6.556 2.199-9.454 2.224-1.36-.003-2.706-.091-4.06-.204l-.678-.053a63.84 63.84 0 0 1-3.476-.36l-.28.575c-1.654 3.365-3.373 6.543-5.743 9.463l-.484.597c-1.394 1.63-3.328 3.35-5.54 3.62-2.02.088-3.99-.534-5.546-1.833-2.309-2.327-2.655-5.994-2.695-9.138.005-.94.014-1.88.029-2.82.041-2.73-.286-4.515-1.764-6.814-.884-.909-1.975-1.565-3.04-2.245-5.2-3.351-5.2-3.351-5.792-5.831-.129-1.265.258-2.545.876-3.645 2.379-2.056 6.046-1.97 9.004-1.773 2.12.162 4.23.355 6.318.77l.144-.49c.319-.885.733-1.692 1.174-2.522l.27-.51c2.24-4.17 5.16-8.668 9.455-10.934l.388-.218c2.332-1.098 5.115-.372 7.234.846Zm-5.815 2.785c-2.696 1.842-4.286 5.046-5.823 7.83l-.246.442c-.727 1.303-1.365 2.528-1.761 3.975 1.232.317 2.464.631 3.697.944l1.257.321c.603.155 1.206.308 1.81.46l.564.147c1.218.305 2.32.55 3.539.11.964-.628 1.443-1.091 1.755-2.198.364-1.76.523-3.438.507-5.234-.004-.412 0-.824.004-1.236.003-2.204-.167-4.268-1.55-6.059-1.337-1.201-2.426-.31-3.753.498ZM46.074 51.022c1.51 1.694 3.569 3.291 5.91 3.445 1.582-.061 2.814-.763 3.951-1.839.647-.707 1.038-1.313 1.383-2.208-1.78-.359-3.495-.47-5.308-.465l-.743-.01c-2.79-.057-2.79-.057-5.193 1.077Zm16.464.401c-.71 1.747-1.007 3.616-.263 5.409.907 1.72 2.104 2.763 3.96 3.388 2.076.634 4.186 1.18 6.342 1.443 1.41-2.912 1.41-2.912 1.405-6.023-.999-1.74-2.799-2.176-4.625-2.675-.45-.12-.9-.239-1.351-.355a688.905 688.905 0 0 0-2.685-.708c-.928-.238-1.834-.376-2.783-.479Zm14.742 6.1c-1.136 1.33-1.569 3.106-2.093 4.742.79.131 1.58.26 2.372.39l.669.11c5.326.928 5.326.928 10.411-.299-1.176-2.764-4.838-4.255-7.429-5.42-1.43-.53-2.738-.569-3.93.478Zm-18.444 8.168c-1.701 1.95-1.472 5.377-1.317 7.818.207 1.628.543 3.313 1.606 4.618.912.304 1.548-.03 2.41-.402 3.946-2.034 6.84-6.728 8.633-10.64.073-.267.142-.534.2-.804-.867-.237-1.736-.469-2.606-.697-.358-.094-.716-.19-1.074-.287-2.554-.648-5.537-1.189-7.852.394Z" fill="#00FFA6"/>
    <path d="M102.292 41.184h5.823c.708 1.063 1.392 2.096 2.036 3.191l.223.378a5632.476 5632.476 0 0 1 1.741 2.947l.261.44a366.111 366.111 0 0 0 2.465 4.087c1.428 2.343 2.834 4.699 4.232 7.06l.234.394.622 1.053c.543.914 1.091 1.825 1.638 2.736l.2-22.286h5.02v31.12c-5.622 0-5.622 0-6.768-.965-.337-.635-.337-.635-.623-1.331a38.84 38.84 0 0 0-.365-.716c-.252-.49-.493-.983-.726-1.483-.531-1.118-1.195-2.157-1.846-3.21-.249-.416-.499-.832-.747-1.249a717.785 717.785 0 0 0-2.453-4.059l-.212-.35-1.074-1.766-2.101-3.458-.664-1.095-.408-.67-.358-.59c-.311-.514-.621-1.03-.93-1.545l-.201 22.487h-5.019v-31.12ZM148.519 51.01c.33.328.645.67.955 1.016l.201-2.61h5.02v22.888h-5.02l-.201-3.212-.589.728a9.14 9.14 0 0 1-6.237 3.087l-.388.03c-2.836.126-5.572-.859-7.706-2.703-2.527-2.435-3.891-5.318-4.019-8.832-.065-3.53.879-6.831 3.367-9.439 3.78-3.724 10.457-4.562 14.617-.952Zm-10.858 4.53c-1.555 1.797-2.153 3.538-2.102 5.892.207 2.112 1.106 3.785 2.662 5.206 1.813 1.454 3.527 1.66 5.832 1.45 1.932-.399 3.496-1.784 4.606-3.376 1.088-1.956 1.217-4.044.684-6.186-.612-1.807-1.989-3.364-3.649-4.3-2.883-1.275-5.749-.948-8.033 1.314ZM223.561 51.022c2.365 1.927 3.701 4.635 4.166 7.63.126 1.397.19 2.853-.15 4.216l-17.669.2c.902 2.164 1.489 3.53 3.584 4.462 2.146.78 4.482.764 6.584-.17 1.073-.625 1.994-1.453 2.682-2.484.951.29 1.805.677 2.685 1.129l.39.198c.314.159.627.319.941.48-.385 1.4-1.212 2.197-2.209 3.212l-.34.354c-2.031 1.935-5.077 2.637-7.804 2.733-3.477-.114-6.503-1.483-8.895-3.983-2.212-2.626-3.011-5.926-2.787-9.31.361-3.208 1.571-6.041 3.965-8.266 4.337-3.29 10.396-3.679 14.857-.401Zm-12.047 4.216c-.887 1.078-1.606 2.192-1.606 3.614h12.85c-.465-2.092-1.029-3.4-2.811-4.618-2.71-1.482-6.138-1.027-8.433 1.004ZM249.019 50.46c2.039 1.57 2.999 4.043 3.362 6.521.154 1.45.117 2.908.112 4.363l-.001.95-.005 2.487-.004 2.544c-.002 1.66-.006 3.32-.01 4.98h-5.019l-.006-1.256a946.559 946.559 0 0 0-.031-4.128c-.008-.833-.015-1.667-.018-2.5-.003-.806-.01-1.612-.019-2.417a93.518 93.518 0 0 1-.005-.918c-.002-2.051-.119-4.023-1.377-5.735-1.078-1.005-2.422-1.603-3.915-1.574-1.692.209-3.504.765-4.668 2.063-.865 1.37-1.225 2.546-1.246 4.156l-.006.404-.016 1.316-.013.915-.031 2.404-.032 2.455c-.022 1.605-.042 3.21-.062 4.814h-5.019V49.416h5.019l.201 2.61.803-1.004c3.51-2.708 8.262-3.069 12.006-.562ZM177.777 50.926c1.727 1.55 2.659 4.036 2.851 6.316.05 1.073.036 2.146.026 3.22l-.003 1.029c-.002.895-.008 1.79-.015 2.685-.006.917-.009 1.834-.012 2.75-.006 1.793-.017 3.586-.029 5.378h-4.819l-.012-1.184a1685.1 1685.1 0 0 0-.046-3.895c-.01-.786-.019-1.573-.026-2.359a577.9 577.9 0 0 0-.028-2.28l-.009-.867c-.021-2.44-.067-4.722-1.686-6.682-1.176-.997-2.503-1.242-4.015-1.204-1.647.154-3.164.85-4.292 2.07-1.119 1.426-1.347 3.096-1.371 4.868l-.012.78-.011.832-.012.86-.031 2.25-.032 2.302c-.022 1.503-.042 3.006-.062 4.51h-4.819v-22.89h4.819l.201 2.812.527-.716c3.265-3.736 9.252-3.427 12.918-.585ZM199.468 50.42c1.315 1.062 2.08 2.223 2.61 3.814v1.807h-4.618l-.803-1.606c-.717-.671-1.625-1.133-2.61-1.205l-.392-.03c-1.422-.062-2.823.147-3.95 1.06-.39.815-.452 1.497-.276 2.384.403.662.751.924 1.491 1.157 1.861.449 3.734.818 5.616 1.166 1.855.366 3.782.897 5.14 2.294 1.169 1.799 1.367 3.279 1.205 5.421-.435 1.96-1.372 3.434-3.024 4.568a12.009 12.009 0 0 1-5.409 1.656l-.475.032c-2.933.104-5.814-.58-8.145-2.416-1.303-1.226-1.901-2.7-2.222-4.442v-1.004h4.618l1.004 2.008c1.685 1.37 3.493 1.526 5.609 1.314 1.05-.186 1.815-.57 2.623-1.251.318-.735.4-1.494.201-2.272-.708-.9-1.319-1.172-2.422-1.417l-.417-.097a65.972 65.972 0 0 0-2.396-.485c-1.898-.357-3.678-.707-5.406-1.614l-.415-.217c-1.144-.702-1.891-1.914-2.325-3.17-.35-2.106-.182-4.097 1.028-5.885 3.159-3.965 10.114-4.24 14.16-1.57Z" fill="#fff"/>
</svg>
