<svg width="294" height="113" viewBox="0 0 294 113" fill="none" xmlns="http://www.w3.org/2000/svg">
    <rect width="294" height="113" rx="15" fill="#2F2F2F"/>
    <g clip-path="url(#clip0_364_23711)" fill="#F3BA2F">
        <path d="m50.85 52.49 8.48-8.542 8.482 8.55 4.93-4.974L59.33 34.002 45.917 47.521l4.934 4.97ZM37.498 56.003l4.933-4.972 4.932 4.972-4.932 4.97-4.933-4.97ZM50.85 59.514l8.48 8.545 8.482-8.549 4.934 4.966-.004.004L59.33 78.002 45.917 64.487l-.007-.007 4.94-4.966ZM71.288 56.004l4.932-4.971 4.933 4.97-4.933 4.972-4.932-4.971Z"/>
        <path d="m64.333 56-5.003-5.046-3.7 3.73-.428.427-.875.882-.007.007.007.01 5.003 5.04 5.003-5.046.003-.004h-.003ZM88.848 44.664h10.73c2.662 0 4.676.695 6.042 2.085a5.411 5.411 0 0 1 1.582 3.934v.066a5.827 5.827 0 0 1-.245 1.765c-.152.493-.374.961-.658 1.39-.265.405-.585.77-.952 1.085-.358.31-.75.579-1.169.8a7.805 7.805 0 0 1 3.162 2.084c.768.88 1.152 2.097 1.152 3.65v.065c.022.97-.188 1.93-.611 2.801a5.441 5.441 0 0 1-1.748 2.002 8.259 8.259 0 0 1-2.741 1.2 14.61 14.61 0 0 1-3.548.399H88.848V44.664Zm9.655 9.432a5.272 5.272 0 0 0 2.679-.584 2.027 2.027 0 0 0 .986-1.884v-.066a2.077 2.077 0 0 0-.859-1.782c-.572-.41-1.398-.616-2.479-.616h-5.02v4.932h4.693Zm1.355 9.4a4.866 4.866 0 0 0 2.655-.615 2.112 2.112 0 0 0 .958-1.918v-.066a2.197 2.197 0 0 0-.893-1.849c-.593-.463-1.551-.695-2.875-.695H93.81v5.143h6.048ZM114.884 44.664h5.093v23.333h-5.093V44.664ZM127.683 44.664h4.697l10.854 14.36v-14.36h5.027v23.333h-4.334l-11.209-14.833v14.833h-5.035V44.664ZM163.681 44.497h4.689l9.92 23.5h-5.317l-2.117-5.234h-9.789l-2.117 5.234h-5.192l9.923-23.5Zm5.358 13.734-3.082-7.569-3.069 7.57h6.151ZM183.797 44.664h4.696l10.848 14.36v-14.36h5.027v23.333h-4.334l-11.21-14.833v14.833h-5.027V44.664ZM222.698 68.407a11.961 11.961 0 0 1-4.731-.932 11.422 11.422 0 0 1-3.764-2.546 11.518 11.518 0 0 1-2.487-3.82 12.427 12.427 0 0 1-.893-4.702v-.066a12.157 12.157 0 0 1 3.375-8.518c1.078-1.115 2.368-2 3.793-2.6 1.55-.647 3.215-.97 4.893-.948.992-.008 1.983.082 2.958.267.835.16 1.65.405 2.435.734a10.51 10.51 0 0 1 2.017 1.132c.614.44 1.19.931 1.724 1.467l-3.238 3.767a12.321 12.321 0 0 0-2.758-1.936 7.017 7.017 0 0 0-3.159-.695 6.359 6.359 0 0 0-2.641.544 6.399 6.399 0 0 0-2.186 1.59 7.337 7.337 0 0 0-1.393 2.318 8.013 8.013 0 0 0-.493 2.819v.066c-.003.96.164 1.913.493 2.815a7.42 7.42 0 0 0 1.379 2.332 6.37 6.37 0 0 0 2.18 1.613 6.323 6.323 0 0 0 2.647.555 7.027 7.027 0 0 0 3.355-.733 12.976 12.976 0 0 0 2.728-2.002l3.241 3.302a16.51 16.51 0 0 1-1.852 1.737c-.649.517-1.353.959-2.1 1.317-.795.378-1.634.657-2.496.83-.997.202-2.011.3-3.027.293ZM238.183 44.664h17.423v4.566h-12.413v4.734h10.93v4.566H243.21v4.9h12.568v4.567h-17.585l-.01-23.333Z"/>
    </g>
    <defs>
        <clipPath id="clip0_364_23711">
            <path fill="#fff" transform="translate(37.5 34.002)" d="M0 0h218.275v44H0z"/>
        </clipPath>
    </defs>
</svg>
