<svg width="135" height="94" viewBox="0 0 135 94" fill="none" xmlns="http://www.w3.org/2000/svg">
    <rect width="135" height="94" rx="20" fill="#fff"/>
    <path d="M79.86 68.095H55.767V24.704H79.86v43.39Z" fill="#FF5F00"/>
    <path d="M57.31 46.396c0-8.802 4.113-16.643 10.517-21.696a27.38 27.38 0 0 0-17.017-5.9c-15.207 0-27.534 12.355-27.534 27.596 0 15.24 12.327 27.596 27.534 27.596a27.38 27.38 0 0 0 17.017-5.9C61.423 63.038 57.31 55.197 57.31 46.395Z" fill="#EB001B"/>
    <path d="M112.354 46.396c0 15.24-12.327 27.596-27.534 27.596a27.39 27.39 0 0 1-17.019-5.9c6.406-5.053 10.519-12.894 10.519-21.696 0-8.802-4.113-16.643-10.519-21.696a27.389 27.389 0 0 1 17.02-5.9c15.206 0 27.533 12.355 27.533 27.596Z" fill="#F79E1B"/>
</svg>
