<svg width="135" height="94" viewBox="0 0 135 94" fill="none" xmlns="http://www.w3.org/2000/svg">
    <rect width="135" height="94" rx="20" fill="#fff"/>
    <path d="M59.94 64.468h-8.988l5.621-32.902h8.988L59.94 64.468ZM92.52 32.37c-1.772-.665-4.584-1.4-8.06-1.4-8.876 0-15.127 4.48-15.165 10.885-.074 4.726 4.475 7.35 7.877 8.926 3.477 1.61 4.66 2.661 4.66 4.096-.036 2.204-2.81 3.22-5.398 3.22-3.588 0-5.511-.523-8.433-1.75l-1.184-.525-1.257 7.385c2.108.91 5.991 1.716 10.024 1.752 9.43 0 15.57-4.411 15.643-11.237.036-3.745-2.366-6.615-7.545-8.96-3.143-1.506-5.068-2.52-5.068-4.061.036-1.4 1.628-2.835 5.176-2.835 2.922-.07 5.07.595 6.696 1.26l.813.35 1.222-7.105Z" fill="#15195A"/>
    <path fill-rule="evenodd" clip-rule="evenodd" d="M108.61 31.566h6.952l7.251 32.902h-8.322s-.815-3.78-1.073-4.936h-11.539l-1.887 4.936h-9.43l13.35-30.172c.925-2.135 2.554-2.73 4.698-2.73Zm-.554 12.04s-2.848 7.316-3.588 9.206h7.47c-.369-1.645-2.071-9.52-2.071-9.52l-.629-2.835c-.264.73-.647 1.733-.905 2.41-.174.46-.292.768-.277.74ZM12.008 31.566h14.46c1.96.07 3.551.665 4.069 2.766l3.142 15.115.002.005.962 4.55 8.802-22.436h9.504L38.82 64.433h-9.504l-8.011-28.588c-2.764-1.53-5.919-2.76-9.446-3.614l.148-.665Z" fill="#15195A"/>
</svg>
