<svg width="135" height="94" viewBox="0 0 135 94" fill="none" xmlns="http://www.w3.org/2000/svg">
    <rect width="135" height="94" rx="20" fill="#fff"/>
    <path fill-rule="evenodd" clip-rule="evenodd" d="m61.538 47.602.588-3.78-1.31-.03h-6.251l4.345-27.894a.37.37 0 0 1 .12-.219.352.352 0 0 1 .233-.086h10.541c3.5 0 5.915.737 7.176 2.192.591.683.968 1.397 1.15 2.182.19.824.194 1.808.008 3.009l-.014.087v.77l.591.339c.498.267.894.573 1.197.923.506.584.833 1.326.971 2.206.143.904.096 1.98-.138 3.2-.27 1.401-.706 2.622-1.295 3.621a7.41 7.41 0 0 1-2.05 2.276c-.783.562-1.712.99-2.763 1.262-1.019.269-2.18.404-3.453.404h-.82c-.587 0-1.156.214-1.604.597a2.521 2.521 0 0 0-.836 1.512l-.062.34-1.038 6.663-.047.244c-.013.077-.034.116-.066.142a.172.172 0 0 1-.107.04h-5.066Z" fill="#104ADE"/>
    <path fill-rule="evenodd" clip-rule="evenodd" d="M79.275 23.152c-.03.203-.067.412-.107.625-1.39 7.227-6.147 9.724-12.221 9.724h-3.093c-.743 0-1.369.546-1.484 1.288l-2.032 13.05a.798.798 0 0 0 .78.927h5.486c.65 0 1.201-.478 1.304-1.126l.054-.282 1.032-6.637.067-.364a1.324 1.324 0 0 1 1.303-1.129h.82c5.316 0 9.476-2.184 10.692-8.507.508-2.64.245-4.846-1.1-6.397a5.247 5.247 0 0 0-1.5-1.172Z" fill="#298FC2"/>
    <path fill-rule="evenodd" clip-rule="evenodd" d="M77.821 22.565a10.78 10.78 0 0 0-1.352-.304 16.988 16.988 0 0 0-2.726-.201H65.48c-.204 0-.397.046-.57.13-.38.186-.664.551-.732.998L62.42 34.461l-.05.328a1.507 1.507 0 0 1 1.484-1.288h3.093c6.074 0 10.83-2.498 12.22-9.723.042-.214.077-.422.108-.626a7.342 7.342 0 0 0-1.143-.488 10.45 10.45 0 0 0-.31-.1Z" fill="#22284F"/>
    <path fill-rule="evenodd" clip-rule="evenodd" d="M64.178 22.76a1.328 1.328 0 0 1 1.302-1.127h8.263c.978 0 1.892.065 2.726.201a10.855 10.855 0 0 1 1.664.402c.41.138.792.3 1.143.488.414-2.67-.003-4.489-1.429-6.135C76.275 14.776 73.437 14 69.806 14H59.264c-.742 0-1.374.546-1.489 1.29l-4.39 28.18a.913.913 0 0 0 .893 1.06h6.508l3.392-21.77ZM30.479 55.274h-7.686c-.526 0-.974.387-1.056.913L18.63 76.142a.645.645 0 0 0 .634.749h3.669c.526 0 .973-.387 1.055-.914l.839-5.382a1.07 1.07 0 0 1 1.054-.914h2.433c5.063 0 7.985-2.48 8.748-7.396.344-2.151.015-3.84-.98-5.024-1.093-1.3-3.03-1.987-5.602-1.987Zm.886 7.288c-.42 2.793-2.527 2.793-4.565 2.793h-1.16l.814-5.215a.643.643 0 0 1 .633-.547h.531c1.388 0 2.698 0 3.374.8.404.478.527 1.188.373 2.17ZM53.65 62.322h-3.68a.643.643 0 0 0-.633.547l-.164 1.042-.257-.378c-.796-1.17-2.573-1.562-4.347-1.562-4.067 0-7.541 3.12-8.218 7.495-.351 2.182.149 4.269 1.372 5.724 1.121 1.338 2.726 1.896 4.635 1.896 3.278 0 5.095-2.133 5.095-2.133l-.164 1.035c-.062.396.24.751.631.751h3.316c.527 0 .972-.387 1.055-.914l1.99-12.755a.643.643 0 0 0-.631-.748Zm-5.13 7.253c-.356 2.129-2.025 3.558-4.153 3.558-1.069 0-1.923-.347-2.472-1.005-.544-.653-.75-1.583-.577-2.618.332-2.11 2.028-3.587 4.124-3.587 1.045 0 1.895.352 2.455 1.015.56.67.783 1.606.622 2.637ZM72.97 62.64h-3.7c-.353 0-.684.178-.884.475l-5.101 7.608-2.163-7.31a1.073 1.073 0 0 0-1.025-.772h-3.634a.648.648 0 0 0-.608.858l4.074 12.105-3.83 5.474c-.301.431.002 1.024.523 1.024h3.694c.35 0 .678-.173.877-.464L73.495 63.66c.294-.43-.008-1.018-.526-1.018Z" fill="#104ADE"/>
    <path fill-rule="evenodd" clip-rule="evenodd" d="M85.299 55.274h-7.687c-.525 0-.972.387-1.054.913l-3.109 19.955a.645.645 0 0 0 .632.749h3.945a.75.75 0 0 0 .737-.64l.882-5.656c.08-.527.53-.914 1.054-.914h2.432c5.064 0 7.985-2.48 8.75-7.396.344-2.151.013-3.84-.982-5.024-1.091-1.3-3.028-1.987-5.6-1.987Zm.887 7.288c-.42 2.793-2.527 2.793-4.565 2.793h-1.159l.815-5.215a.64.64 0 0 1 .632-.547h.531c1.387 0 2.697 0 3.374.8.403.478.526 1.188.372 2.17ZM108.465 62.322h-3.678a.639.639 0 0 0-.631.547l-.164 1.042-.258-.378c-.797-1.17-2.572-1.562-4.346-1.562-4.067 0-7.54 3.12-8.216 7.495-.35 2.182.147 4.269 1.37 5.724 1.124 1.338 2.726 1.896 4.635 1.896 3.278 0 5.095-2.133 5.095-2.133l-.164 1.035a.646.646 0 0 0 .634.751h3.314c.525 0 .972-.387 1.054-.914l1.99-12.755a.647.647 0 0 0-.635-.748Zm-5.13 7.253c-.353 2.129-2.024 3.558-4.153 3.558-1.066 0-1.922-.347-2.471-1.005-.544-.653-.748-1.583-.578-2.618.334-2.11 2.029-3.587 4.125-3.587 1.045 0 1.895.352 2.454 1.015.563.67.786 1.606.623 2.637ZM112.498 55.822l-3.155 20.321a.645.645 0 0 0 .632.749h3.171c.528 0 .975-.387 1.055-.914l3.111-19.954a.645.645 0 0 0-.631-.75h-3.551a.644.644 0 0 0-.632.548Z" fill="#298FC2"/>
</svg>
