<svg width="135" height="94" viewBox="0 0 135 94" fill="none" xmlns="http://www.w3.org/2000/svg">
    <rect width="135" height="94" rx="20" fill="#fff"/>
    <path fill-rule="evenodd" clip-rule="evenodd" d="m115.612 14.12-25.727-.007h-.007c-.02 0-.04.003-.059.003-3.534.108-7.936 2.936-8.738 6.422L68.914 74.233c-.801 3.519 1.38 6.382 4.888 6.435h27.028c3.455-.17 6.813-2.965 7.601-6.412l12.167-53.695c.815-3.555-1.419-6.442-4.986-6.442Z" fill="#01798A"/>
    <path fill-rule="evenodd" clip-rule="evenodd" d="m68.915 74.233 12.167-53.695c.801-3.486 5.203-6.314 8.738-6.422l-10.23-.006-18.43-.004c-3.543.072-8.003 2.92-8.804 6.432l-12.17 53.695c-.805 3.519 1.38 6.382 4.886 6.435h28.731c-3.509-.053-5.69-2.916-4.888-6.435" fill="#024381"/>
    <path fill-rule="evenodd" clip-rule="evenodd" d="m40.186 74.233 12.17-53.695c.801-3.512 5.26-6.36 8.805-6.432L37.55 14.1c-3.564 0-8.133 2.88-8.948 6.438l-12.17 53.695a6.703 6.703 0 0 0-.14.963v.996c.239 2.565 2.203 4.433 5.026 4.476h23.753c-3.507-.053-5.691-2.916-4.886-6.435Z" fill="#DD0228"/>
    <path fill-rule="evenodd" clip-rule="evenodd" d="M61.658 53.232h.447c.41 0 .687-.138.817-.41l1.16-1.733h3.11l-.649 1.14h3.728l-.473 1.747h-4.436c-.51.766-1.14 1.127-1.895 1.084h-2.311l.502-1.828Zm-.51 2.503h8.168l-.521 1.897H65.51l-.5 1.832h3.195l-.52 1.897h-3.197l-.742 2.706c-.184.452.058.655.721.61h2.605l-.482 1.762h-5.002c-.948 0-1.273-.54-.975-1.625l.949-3.453h-2.043l.519-1.897h2.043l.5-1.832H60.63l.52-1.897Zm13.036-4.659-.129 1.111s1.541-1.154 2.94-1.154h5.17l-1.977 7.14c-.164.816-.867 1.221-2.109 1.221h-5.86l-1.373 5.014c-.079.268.033.406.329.406h1.153l-.424 1.556h-2.932c-1.125 0-1.593-.338-1.407-1.016l3.879-14.278h2.74Zm4.379 2.018h-4.615l-.552 1.927s.768-.554 2.053-.573c1.28-.02 2.742 0 2.742 0l.372-1.354Zm-1.672 4.47c.34.045.532-.09.555-.407l.282-1.016h-4.622l-.387 1.422h4.172Zm-3.118 2.306h2.664l-.05 1.15h.71c.358 0 .536-.115.536-.34l.21-.745h2.214l-.296 1.085c-.25.904-.913 1.376-1.99 1.422h-1.42l-.006 1.965c-.026.315.26.476.847.476h1.334l-.43 1.556h-3.2c-.896.043-1.336-.384-1.327-1.288l.204-5.281ZM41.49 41.565c-.361 1.766-1.2 3.122-2.498 4.086-1.288.946-2.949 1.421-4.982 1.421-1.913 0-3.316-.485-4.211-1.458-.62-.69-.93-1.569-.93-2.63 0-.44.053-.911.158-1.419l2.166-10.418h3.272l-2.137 10.3a3.31 3.31 0 0 0-.088.79c-.004.527.128.96.394 1.297.387.501 1.017.75 1.892.75 1.007 0 1.836-.245 2.48-.74.644-.492 1.064-1.19 1.253-2.097l2.144-10.3h3.255L41.49 41.565ZM55.23 37.466h2.562l-2.007 9.298h-2.557l2.002-9.298Zm.806-3.387h2.585l-.483 2.257h-2.584l.482-2.257ZM60.06 46.057c-.67-.639-1.008-1.5-1.011-2.595 0-.187.011-.4.036-.632a6.91 6.91 0 0 1 .1-.678c.304-1.51.951-2.71 1.948-3.595.995-.888 2.196-1.333 3.602-1.333 1.151 0 2.064.321 2.733.963.668.646 1.003 1.517 1.003 2.625 0 .19-.014.409-.04.645-.029.24-.065.468-.106.694-.297 1.488-.942 2.674-1.94 3.542-.997.875-2.194 1.31-3.59 1.31-1.156 0-2.066-.314-2.735-.946Zm4.884-1.841c.451-.489.775-1.23.972-2.215.03-.154.056-.315.072-.475.016-.158.023-.305.023-.44 0-.573-.146-1.018-.44-1.333-.292-.318-.708-.475-1.245-.475-.71 0-1.288.249-1.74.747-.458.498-.781 1.252-.985 2.254-.028.154-.05.308-.072.459a3.318 3.318 0 0 0-.018.43c0 .57.146 1.008.44 1.32.292.31.706.465 1.25.465.713 0 1.29-.246 1.743-.737M85.096 53.31l.618-2.168h3.124l-.135.796s1.596-.796 2.746-.796h3.862l-.614 2.169h-.607l-2.914 10.228h.608l-.578 2.032h-.608l-.253.88H87.32l.252-.88h-5.968l.582-2.032h.598L85.7 53.311h-.604Zm3.37 0-.795 2.769s1.36-.52 2.533-.668c.259-.967.598-2.1.598-2.1h-2.336Zm-1.163 4.066-.798 2.9s1.508-.74 2.542-.803c.299-1.12.598-2.096.598-2.096h-2.342Zm.585 6.163.597-2.103h-2.331l-.601 2.103h2.335Zm7.555-12.532h2.937l.124 1.081c-.02.276.145.407.493.407h.519l-.525 1.831h-2.159c-.824.043-1.248-.272-1.287-.95l-.102-2.368Zm-.86 3.929h9.512l-.558 1.966h-3.029l-.519 1.827h3.026l-.562 1.963h-3.37l-.762 1.15h1.649l.381 2.303c.045.23.249.341.597.341h.513l-.539 1.897h-1.813c-.94.046-1.425-.269-1.465-.947l-.437-2.103-1.501 2.238c-.355.632-.9.927-1.636.88H91.3l.54-1.896h.864c.355 0 .65-.158.916-.475l2.349-3.388H92.94l.561-1.963h3.285l.523-1.827H94.02l.561-1.966ZM44.504 37.463h2.31l-.264 1.343.332-.383c.749-.8 1.659-1.196 2.733-1.196.972 0 1.673.282 2.114.849.433.567.551 1.35.346 2.355l-1.273 6.337h-2.375l1.15-5.743c.118-.593.086-1.036-.097-1.321-.18-.285-.526-.426-1.023-.426-.611 0-1.125.19-1.544.567-.42.38-.698.908-.834 1.58l-1.06 5.343h-2.38l1.864-9.305ZM71.003 37.463h2.313l-.263 1.343.328-.383c.75-.8 1.663-1.196 2.734-1.196.972 0 1.675.282 2.112.849.43.567.555 1.35.345 2.355l-1.268 6.337h-2.379l1.15-5.743c.118-.593.086-1.036-.095-1.321-.187-.285-.526-.426-1.021-.426-.612 0-1.124.19-1.548.567-.42.38-.7.908-.83 1.58l-1.065 5.343H69.14l1.864-9.305M82.435 31.697h6.714c1.291 0 2.29.291 2.976.865.683.58 1.025 1.412 1.025 2.496v.033c0 .206-.013.439-.033.691-.033.25-.076.501-.131.764-.296 1.435-.983 2.588-2.043 3.463-1.065.871-2.326 1.31-3.778 1.31h-3.6l-1.114 5.449h-3.117l3.101-15.071m1.678 7.001H87.1c.778 0 1.395-.18 1.846-.537.447-.36.742-.91.906-1.658.026-.138.043-.262.063-.377.01-.108.022-.216.022-.32 0-.535-.19-.921-.571-1.164-.38-.246-.978-.364-1.807-.364h-2.536l-.91 4.42M107.104 48.567c-.985 2.09-1.925 3.308-2.476 3.875-.553.56-1.646 1.865-4.281 1.766l.227-1.595c2.217-.682 3.416-3.752 4.099-5.111l-.814-10.013 1.715-.023h1.438l.155 6.281 2.696-6.28h2.73l-5.489 11.1M99.47 38.223l-1.084.744c-1.133-.884-2.168-1.432-4.165-.508-2.72 1.258-4.993 10.907 2.496 7.729l.427.504 2.947.076L102.026 38l-2.556.223m-1.675 4.793c-.473 1.393-1.53 2.314-2.358 2.051-.828-.255-1.124-1.599-.644-2.994.473-1.396 1.537-2.313 2.358-2.051.828.255 1.127 1.599.644 2.994Z" fill="#fff"/>
    <path fill-rule="evenodd" clip-rule="evenodd" d="m89.878 14.13-10.288-.02 10.23.044c.019 0 .038-.024.058-.024" fill="#E02F41"/>
    <path fill-rule="evenodd" clip-rule="evenodd" d="M79.59 14.165 61.302 14.1c-.046 0-.094.02-.141.041l18.43.024" fill="#2E4F7D"/>
</svg>
